<svg width="24" height="24" viewBox="0 0 26 26" fill="none" xmlns="http://www.w3.org/2000/svg">
  <path
    d="M18.383 3.50365L20.5423 1.34304C20.9925 0.892901 21.603 0.640015 22.2396 0.640015C22.8762 0.640015 23.4867 0.892901 23.9369 1.34304C24.387 1.79318 24.6399 2.4037 24.6399 3.0403C24.6399 3.67689 24.387 4.28742 23.9369 4.73756L10.3447 18.3297C9.66803 19.006 8.83353 19.5031 7.9166 19.7761L4.47984 20.8001L5.50383 17.3633C5.77682 16.4464 6.27391 15.6119 6.95021 14.9352L18.383 3.50365ZM18.383 3.50365L21.7596 6.88025M19.8396 15.6801V21.7601C19.8396 22.5239 19.5362 23.2564 18.9961 23.7965C18.456 24.3366 17.7235 24.64 16.9597 24.64H3.51985C2.75604 24.64 2.02351 24.3366 1.48341 23.7965C0.943316 23.2564 0.639893 22.5239 0.639893 21.7601V8.32023C0.639893 7.55642 0.943316 6.82389 1.48341 6.28379C2.02351 5.74369 2.75604 5.44027 3.51985 5.44027H9.59977"
    stroke="white" stroke-width="1.27998" stroke-linecap="round" stroke-linejoin="round" />
</svg>