<svg width="16" height="16" viewBox="0 0 16 16" fill="none" xmlns="http://www.w3.org/2000/svg">
<path d="M1.17159 1.3726C0.800148 1.80776 0.505506 2.32437 0.304485 2.89294C0.103464 3.46151 0 4.07089 0 4.68631C0 5.30172 0.103464 5.91111 0.304485 6.47968C0.505506 7.04825 0.800148 7.56486 1.17159 8.00002L8.00001 16L14.8284 8.00002C15.5786 7.12117 16 5.92919 16 4.68631C16 3.44343 15.5786 2.25145 14.8284 1.3726C14.0783 0.493745 13.0609 1.19271e-05 12 1.19178e-05C10.9391 1.19085e-05 9.9217 0.493745 9.17156 1.3726L8.00001 2.74515L6.82845 1.3726C6.45702 0.93743 6.01606 0.592237 5.53076 0.356726C5.04546 0.121216 4.52531 0 4.00002 0C3.47473 0 2.95458 0.121216 2.46928 0.356726C1.98398 0.592237 1.54302 0.93743 1.17159 1.3726Z" fill="white"/>
</svg>
