<svg width="17" height="17" viewBox="0 0 17 17" fill="none" xmlns="http://www.w3.org/2000/svg">
<path d="M0.5 8.5L2.27778 6.72222M2.27778 6.72222L8.5 0.5L14.7222 6.72222M2.27778 6.72222V15.6111C2.27778 15.8469 2.37143 16.073 2.53813 16.2397C2.70483 16.4064 2.93092 16.5 3.16667 16.5H5.83333M14.7222 6.72222L16.5 8.5M14.7222 6.72222V15.6111C14.7222 15.8469 14.6286 16.073 14.4619 16.2397C14.2952 16.4064 14.0691 16.5 13.8333 16.5H11.1667M5.83333 16.5C6.06908 16.5 6.29517 16.4064 6.46187 16.2397C6.62857 16.073 6.72222 15.8469 6.72222 15.6111V12.0556C6.72222 11.8198 6.81587 11.5937 6.98257 11.427C7.14927 11.2603 7.37536 11.1667 7.61111 11.1667H9.38889C9.62464 11.1667 9.85073 11.2603 10.0174 11.427C10.1841 11.5937 10.2778 11.8198 10.2778 12.0556V15.6111C10.2778 15.8469 10.3714 16.073 10.5381 16.2397C10.7048 16.4064 10.9309 16.5 11.1667 16.5M5.83333 16.5H11.1667" stroke="white" stroke-linecap="round" stroke-linejoin="round"/>
</svg>
