<svg width="17" height="17" viewBox="0 0 17 17" fill="none" xmlns="http://www.w3.org/2000/svg">
  <path
    d="M6.91369 0.5H1.41624C0.910215 0.5 0.5 0.897969 0.5 1.38889V15.6111C0.5 16.102 0.910215 16.5 1.41624 16.5H6.91369C7.41972 16.5 7.82993 16.102 7.82993 15.6111V1.38889C7.82993 0.897969 7.41972 0.5 6.91369 0.5Z"
    stroke="white" stroke-linecap="round" stroke-linejoin="round" />
  <path
    d="M4.16479 0.5V16.5M16.4424 14.6333C16.6257 15.0778 16.3508 15.6111 15.8927 15.7889L14.1518 16.4111C13.6937 16.5889 13.144 16.3222 12.9607 15.8778L7.92138 2.36667C7.73814 1.92222 8.01301 1.38889 8.47113 1.21111L10.212 0.588889C10.6701 0.411111 11.2199 0.677778 11.4031 1.12222L16.4424 14.6333Z"
    stroke="white" stroke-linecap="round" stroke-linejoin="round" />
</svg>