<svg width="26" height="26" viewBox="0 0 26 26" fill="none" xmlns="http://www.w3.org/2000/svg">
<path d="M8.66675 22V4.66669L24.6667 0.666687V18M8.66675 22C8.66675 23.4734 6.87608 24.6667 4.66675 24.6667C2.45741 24.6667 0.666748 23.4734 0.666748 22C0.666748 20.5267 2.45741 19.3334 4.66675 19.3334C6.87608 19.3334 8.66675 20.5267 8.66675 22ZM24.6667 18C24.6667 19.4734 22.8761 20.6667 20.6667 20.6667C18.4574 20.6667 16.6667 19.4734 16.6667 18C16.6667 16.5267 18.4574 15.3334 20.6667 15.3334C22.8761 15.3334 24.6667 16.5267 24.6667 18ZM8.66675 10L24.6667 6.00002" stroke="white" stroke-width="1.33333" stroke-linecap="round" stroke-linejoin="round"/>
</svg>
