<svg width="18" height="22" viewBox="0 0 18 22" fill="#000000" xmlns="http://www.w3.org/2000/svg">
  <path
    d="M15.5236 0.666687H12.095C11.4638 0.666687 10.9521 1.16415 10.9521 1.7778V19.5556C10.9521 20.1692 11.4638 20.6667 12.095 20.6667H15.5236C16.1548 20.6667 16.6664 20.1692 16.6664 19.5556V1.7778C16.6664 1.16415 16.1548 0.666687 15.5236 0.666687Z"
    stroke="currentColor" stroke-width="0.8" stroke-linecap="round" stroke-linejoin="round" />
  <path
    d="M5.23793 0.666687H1.80936C1.17818 0.666687 0.666504 1.16415 0.666504 1.7778V19.5556C0.666504 20.1692 1.17818 20.6667 1.80936 20.6667H5.23793C5.86912 20.6667 6.38079 20.1692 6.38079 19.5556V1.7778C6.38079 1.16415 5.86912 0.666687 5.23793 0.666687Z"
    stroke="currentColor" stroke-width="0.8" stroke-linecap="round" stroke-linejoin="round" />
</svg>