<svg width="18" height="22" viewBox="0 0 19 22" fill="#000000" xmlns="http://www.w3.org/2000/svg">
  <path
    d="M0.666504 2.88936C0.666393 2.49838 0.764932 2.11429 0.952171 1.77587C1.13941 1.43745 1.40872 1.15669 1.73291 0.961927C2.05709 0.767169 2.42468 0.665312 2.79855 0.666639C3.17242 0.667966 3.53934 0.772432 3.86226 0.969487L16.6081 8.74453C16.9297 8.93972 17.1968 9.21977 17.3825 9.5567C17.5683 9.89364 17.6662 10.2756 17.6665 10.6646C17.6668 11.0535 17.5695 11.4357 17.3844 11.7729C17.1992 12.1102 16.9326 12.3907 16.6113 12.5865L3.86226 20.3638C3.53934 20.5608 3.17242 20.6653 2.79855 20.6666C2.42468 20.6679 2.05709 20.5661 1.73291 20.3713C1.40872 20.1766 1.13941 19.8958 0.952171 19.5574C0.764932 19.219 0.666393 18.8349 0.666504 18.4439V2.88936Z"
    stroke="none" stroke-linecap="round" stroke-linejoin="round" />
</svg>