<svg width="32" height="32" viewBox="0 0 32 32" fill="none" xmlns="http://www.w3.org/2000/svg">
<path d="M4.20175 25.34C7.6992 23.3634 11.6494 22.3275 15.6667 22.3333C19.8334 22.3333 23.7451 23.425 27.1317 25.34M20.6667 12.3333C20.6667 13.6594 20.14 14.9312 19.2023 15.8689C18.2646 16.8065 16.9928 17.3333 15.6667 17.3333C14.3407 17.3333 13.0689 16.8065 12.1312 15.8689C11.1935 14.9312 10.6667 13.6594 10.6667 12.3333C10.6667 11.0073 11.1935 9.73548 12.1312 8.7978C13.0689 7.86012 14.3407 7.33333 15.6667 7.33333C16.9928 7.33333 18.2646 7.86012 19.2023 8.7978C20.14 9.73548 20.6667 11.0073 20.6667 12.3333ZM30.6667 15.6667C30.6667 17.6365 30.2788 19.587 29.5249 21.4069C28.7711 23.2268 27.6662 24.8804 26.2733 26.2733C24.8805 27.6661 23.2269 28.771 21.407 29.5249C19.5871 30.2787 17.6366 30.6667 15.6667 30.6667C13.6969 30.6667 11.7464 30.2787 9.9265 29.5249C8.10661 28.771 6.45302 27.6661 5.06015 26.2733C3.66727 24.8804 2.56238 23.2268 1.80855 21.4069C1.05473 19.587 0.666748 17.6365 0.666748 15.6667C0.666748 11.6884 2.2471 7.87311 5.06015 5.06007C7.87319 2.24702 11.6885 0.666667 15.6667 0.666667C19.645 0.666667 23.4603 2.24702 26.2733 5.06007C29.0864 7.87311 30.6667 11.6884 30.6667 15.6667Z" stroke="white" stroke-width="1.33333" stroke-linecap="round" stroke-linejoin="round"/>
</svg>
