<svg width="17" height="17" viewBox="0 0 17 17" fill="none" xmlns="http://www.w3.org/2000/svg">
  <path
    d="M16.5 16.5L11.1667 11.1667M12.9444 6.72222C12.9444 7.53934 12.7835 8.34845 12.4708 9.10336C12.1581 9.85828 11.6998 10.5442 11.122 11.122C10.5442 11.6998 9.85828 12.1581 9.10336 12.4708C8.34845 12.7835 7.53934 12.9444 6.72222 12.9444C5.90511 12.9444 5.096 12.7835 4.34108 12.4708C3.58617 12.1581 2.90023 11.6998 2.32245 11.122C1.74466 10.5442 1.28633 9.85828 0.973639 9.10336C0.660943 8.34845 0.5 7.53934 0.5 6.72222C0.5 5.07199 1.15555 3.48934 2.32245 2.32245C3.48934 1.15555 5.07199 0.5 6.72222 0.5C8.37246 0.5 9.9551 1.15555 11.122 2.32245C12.2889 3.48934 12.9444 5.07199 12.9444 6.72222Z"
    stroke="white" stroke-linecap="round" stroke-linejoin="round" />
</svg>