<svg width="23" height="26" viewBox="0 0 23 26" fill="none" xmlns="http://www.w3.org/2000/svg">
<path d="M20.6667 5.99996L19.5107 22.1893C19.4629 22.8621 19.1618 23.4917 18.6682 23.9514C18.1747 24.4111 17.5252 24.6666 16.8507 24.6666H5.81608C5.1416 24.6666 4.49217 24.4111 3.9986 23.9514C3.50502 23.4917 3.20397 22.8621 3.15608 22.1893L2.00008 5.99996M8.66675 11.3333V19.3333M14.0001 11.3333V19.3333M15.3334 5.99996V1.99996C15.3334 1.64634 15.1929 1.3072 14.9429 1.05715C14.6928 0.807102 14.3537 0.666626 14.0001 0.666626H8.66675C8.31313 0.666626 7.97399 0.807102 7.72394 1.05715C7.47389 1.3072 7.33341 1.64634 7.33341 1.99996V5.99996M0.666748 5.99996H22.0001" stroke="white" stroke-width="1.33333" stroke-linecap="round" stroke-linejoin="round"/>
</svg>
